<?xml version="1.0" encoding="UTF-8" standalone="no"?>
<svg
   xmlns:dc="http://purl.org/dc/elements/1.1/"
   xmlns:cc="http://creativecommons.org/ns#"
   xmlns:rdf="http://www.w3.org/1999/02/22-rdf-syntax-ns#"
   xmlns:svg="http://www.w3.org/2000/svg"
   xmlns="http://www.w3.org/2000/svg"
   xmlns:sodipodi="http://sodipodi.sourceforge.net/DTD/sodipodi-0.dtd"
   xmlns:inkscape="http://www.inkscape.org/namespaces/inkscape"
   id="svg"
   version="1.1"
   width="339.556"
   height="42.378708"
   viewBox="0 0 339.556 42.378708"
   sodipodi:docname="logo-text.svg"
   inkscape:version="1.0.2 (e86c870879, 2021-01-15)">
  <metadata
     id="metadata13">
    <rdf:RDF>
      <cc:Work
         rdf:about="">
        <dc:format>image/svg+xml</dc:format>
        <dc:type
           rdf:resource="http://purl.org/dc/dcmitype/StillImage" />
        <dc:title></dc:title>
      </cc:Work>
    </rdf:RDF>
  </metadata>
  <defs
     id="defs11" />
  <sodipodi:namedview
     pagecolor="#ffffff"
     bordercolor="#666666"
     borderopacity="1"
     objecttolerance="10"
     gridtolerance="10"
     guidetolerance="10"
     inkscape:pageopacity="0"
     inkscape:pageshadow="2"
     inkscape:window-width="1920"
     inkscape:window-height="993"
     id="namedview9"
     showgrid="false"
     fit-margin-top="0"
     fit-margin-left="0"
     fit-margin-right="0"
     fit-margin-bottom="0"
     inkscape:zoom="2.0775"
     inkscape:cx="169.778"
     inkscape:cy="-103.61344"
     inkscape:window-x="0"
     inkscape:window-y="28"
     inkscape:window-maximized="1"
     inkscape:current-layer="svgg" />
  <g
     id="svgg"
     transform="translate(-30.222,-336.46529)">
    <path
       id="path0"
       d="m 261.156,376.711 v 2.133 H 296 330.844 v -2.133 -2.133 H 296 261.156 v 2.133"
       stroke="none"
       fill="#de8925"
       fill-rule="evenodd"
       sodipodi:nodetypes="ccccccccc" />
    <path
       id="path1"
       d="m 30.222,376.711 v 2.133 h 57.956 57.955 v -2.022 -2.022 l -0.555,-0.111 c -0.306,-0.061 -26.386,-0.111 -57.956,-0.111 h -57.4 v 2.133"
       stroke="none"
       fill="#2a8d95"
       fill-rule="evenodd"
       sodipodi:nodetypes="cccccccscc" />
    <path
       id="path2"
       d="m 41.487,336.799 c -13.337,2.9 -15.312,22.401 -2.864,28.271 2.595,1.224 2.543,1.218 11.733,1.287 l 8.311,0.062 v -2.765 -2.765 H 51.06 c -9.632,0 -10.374,-0.164 -12.915,-2.859 -4.205,-4.457 -3.324,-11.493 1.849,-14.776 1.836,-1.165 2.237,-1.21 10.869,-1.21 h 7.804 v -2.755 -2.756 l -8.045,0.014 c -5.998,0.011 -8.322,0.075 -9.135,0.252 m 29.535,-0.003 c -11.129,2.449 -15.044,15.974 -6.951,24.011 8.714,8.653 23.44,2.875 24.055,-9.438 0.465,-9.304 -8.056,-16.563 -17.104,-14.573 m 20,13.941 v 14.241 h 2.667 2.667 v -8.889 c 0,-4.889 0.039,-8.889 0.088,-8.889 0.048,0 2.06,1.519 4.47,3.376 l 4.382,3.375 0.762,-0.575 c 0.419,-0.317 2.402,-1.836 4.407,-3.376 2.005,-1.54 3.69,-2.8 3.745,-2.8 0.056,0 0.101,4 0.101,8.889 v 8.889 h 2.578 2.578 v -14.222 c 0,-7.823 -0.042,-14.223 -0.092,-14.223 -0.05,0 -3.214,2.4 -7.031,5.334 -3.817,2.933 -6.982,5.333 -7.035,5.333 -0.052,0 -3.17,-2.363 -6.929,-5.252 -3.759,-2.889 -6.952,-5.297 -7.096,-5.352 -0.229,-0.088 -0.262,1.679 -0.262,14.141 m 32.399,-5.893 c 0.066,8.873 0.05,8.69 1.02,11.284 3.608,9.642 17.235,11.8 23.989,3.799 3.028,-3.588 3.392,-5.27 3.392,-15.676 v -7.718 h -2.578 -2.577 l -0.004,7.067 c -0.004,7.964 -0.097,9.001 -0.975,10.857 -3.253,6.876 -12.923,6.876 -16.176,0 -0.878,-1.856 -0.971,-2.893 -0.975,-10.857 l -0.004,-7.067 h -2.587 -2.588 l 0.063,8.311 m 32.312,5.905 v 14.229 h 2.576 2.577 l 0.046,-8.85 0.046,-8.849 11.466,8.846 c 6.307,4.865 11.527,8.847 11.6,8.849 0.074,0.002 0.134,-6.396 0.134,-14.218 v -14.223 h -2.665 -2.665 l -0.046,8.861 -0.046,8.861 -9.423,-7.265 c -5.182,-3.995 -10.362,-7.986 -11.511,-8.867 l -2.089,-1.603 v 14.229 m 32.178,0.007 v 14.222 h 2.667 2.666 v -14.222 -14.223 h -2.666 -2.667 v 14.223 m 19.824,-13.927 c -12.966,2.777 -15.084,20.642 -3.157,26.628 2.718,1.364 3.04,1.403 12.266,1.478 l 8.223,0.068 v -2.679 -2.68 h -7.696 c -9.569,0 -10.078,-0.1 -12.625,-2.482 -4.483,-4.194 -3.485,-11.463 1.974,-14.373 1.939,-1.034 2.541,-1.095 10.836,-1.097 l 7.511,-0.003 v -2.578 -2.578 l -8.045,0.015 c -6.431,0.011 -8.293,0.068 -9.287,0.281 m 26.843,13.667 c -3.911,7.676 -7.137,14.074 -7.169,14.219 -0.049,0.224 0.375,0.262 2.845,0.26 l 2.902,-0.002 4.124,-8.131 c 2.269,-4.472 4.231,-8.276 4.362,-8.454 0.212,-0.288 0.704,0.592 4.529,8.089 l 4.292,8.412 2.946,0.049 c 1.621,0.026 2.947,0.014 2.947,-0.029 0,-0.204 -14.4,-28.286 -14.524,-28.325 -0.079,-0.024 -3.343,6.236 -7.254,13.912 m 22.886,-3.518 c 0.077,12.347 0.095,12.459 2.44,15.025 2.514,2.75 3.002,2.862 12.852,2.934 l 8.133,0.06 v -2.562 -2.563 l -0.933,-0.112 c -0.514,-0.062 -3.934,-0.115 -7.6,-0.118 -7.446,-0.006 -7.57,-0.024 -8.613,-1.261 -1.011,-1.2 -0.987,-0.916 -0.987,-11.798 v -10.05 h -2.679 -2.678 l 0.065,10.445 m 27.376,0.178 c 0.066,12.632 0.074,12.675 2.922,15.403 2.336,2.239 3.259,2.413 12.816,2.416 l 7.689,0.003 v -2.553 -2.553 l -0.934,-0.112 c -0.513,-0.062 -3.957,-0.113 -7.653,-0.114 -10.316,-0.002 -9.547,1.043 -9.547,-12.972 v -10.141 h -2.674 -2.675 l 0.056,10.623 m 24.18,-2.489 c 0.079,8.99 0.128,9.424 1.373,12.085 5.047,10.785 20.455,10.849 25.694,0.106 1.262,-2.588 1.333,-3.241 1.334,-12.28 l 0.001,-8.045 h -2.578 -2.577 l -0.003,7.511 c -0.002,6.071 -0.054,7.73 -0.271,8.651 -1.615,6.85 -10.057,9.273 -15,4.304 -2.543,-2.556 -2.677,-3.195 -2.68,-12.777 l -0.002,-7.689 h -2.681 -2.68 l 0.07,8.134 m 32.313,6.089 v 14.222 h 2.576 2.577 l 0.046,-8.96 0.046,-8.96 4.492,3.452 4.492,3.452 4.486,-3.454 4.485,-3.454 0.046,8.962 0.046,8.962 h 2.577 2.576 v -14.222 c 0,-7.823 -0.06,-14.222 -0.134,-14.22 -0.073,10e-4 -3.249,2.401 -7.057,5.333 -3.808,2.932 -6.97,5.331 -7.026,5.331 -0.056,0 -3.22,-2.399 -7.031,-5.33 -3.812,-2.932 -6.99,-5.332 -7.063,-5.333 -0.074,-0.002 -0.134,6.396 -0.134,14.219 M 75.868,341.957 c 6.377,1.503 9.162,8.892 5.29,14.036 -4.443,5.903 -13.563,4.332 -15.738,-2.71 -1.983,-6.417 3.958,-12.857 10.448,-11.326"
       stroke="none"
       fill="#040404"
       fill-rule="evenodd"
       sodipodi:nodetypes="ccccccsccscccccccccccccsscccssscccsscsscccccscccccsccccccccccccssccccccccccccccccccccccccscccccccccccccscccscccccccccccsccccccccccccsccccccsccccccccccccccccccccccccccscssccccccc" />
    <path
       id="path3"
       d="m 145.733,374.703 c 0.387,0.075 0.4,0.143 0.4,2.109 v 2.032 h 55.111 55.112 v -2.133 -2.133 l -55.512,0.024 c -30.531,0.013 -55.331,0.059 -55.111,0.101"
       stroke="none"
       fill="#465a8e"
       fill-rule="evenodd"
       sodipodi:nodetypes="csccccccc" />
    <path
       id="path4"
       d="m 330.844,376.711 v 2.133 h 19.467 19.467 v -2.133 -2.133 h -19.467 -19.467 v 2.133"
       stroke="none"
       fill="#e12117"
       fill-rule="evenodd"
       sodipodi:nodetypes="ccccccccc" />
  </g>
</svg>
